{"title":"Time Traveling With Brian Unger S01E01 HDTV x264-W4F","uid":11831703,"size":171737838,"categoryP":"video","categoryS":"tv_shows","magnet":"?xt=urn:btih:d82ec5fb47f2dd2c37138a676af5a806c3c3aad2&amp;dn=Time+Traveling+With+Brian+Unger+S01E01+HDTV+x264-W4F&amp;tr=udp%3A%2F%2Ftracker.openbittorrent.com%3A80&amp;tr=udp%3A%2F%2Fopen.demonii.com%3A1337&amp;tr=udp%3A%2F%2Ftracker.coppersurfer.tk%3A6969&amp;tr=udp%3A%2F%2Fexodus.desync.com%3A6969","seeders":6,"leechers":3,"uploader":"Gertivaldo","files":1,"time":1429577581,"description":"Airdate: April/20/2015\n\nScreen: http://i.imgur.com/nHYNxrm.jpg?1\n\n---X---\n\nTime Traveling With Brian Unger goes where ordinary travelers can't, using eye-popping computer-generated graphics to visually travel back in time and tell stories from yesteryear that tourists won't find in the guidebooks. Host Brian Unger is the ultimate tour guide, bringing his irreverent humor and point of view to the fascinating stories that most Americans don't know yet. In each episode, locals agree to accompany Brian to destinations they've never visited before - some off-limits to the general public - or to look at iconic landmarks in a fresh, new way, revealing histories we never knew.\n- Written by The TRAVEL Channel\n\n---X---\n\nFormat : MPEG-4 \nFormat profile : Base Media \nCodec ID : isom \nFile size : 164 MiB \nDuration : 21mn 0s \nOverall bit rate mode : Variable \nOverall bit rate : 1 090 Kbps \nEncoded date : UTC 2015-04-21 02:48:16 \nTagged date : UTC 2015-04-21 02:48:16 \n\nVideo \nID : 1 \nFormat : AVC \nFormat/Info : Advanced Video Codec \nFormat profile : &lt;a class=&quot;__cf_email__&quot; href=&quot;/cdn-cgi/l/email-protection&quot; data-cfemail=&quot;551d3c323d1519667b64&quot;&gt;[email&amp;#160;protected]&lt;/a&gt;&lt;script cf-hash='f9e31' type=&quot;text/javascript&quot;&gt;\n/* &lt;![CDATA[ */!function(){try{var t=&quot;currentScript&quot;in document?document.currentScript:function(){for(var t=document.getElementsByTagName(&quot;script&quot;),e=t.length;e--;)if(t[e].getAttribute(&quot;cf-hash&quot;))return t[e]}();if(t&amp;&amp;t.previousSibling){var e,r,n,i,c=t.previousSibling,a=c.getAttribute(&quot;data-cfemail&quot;);if(a){for(e=&quot;&quot;,r=parseInt(a.substr(0,2),16),n=2;a.length-n;n+=2)i=parseInt(a.substr(n,2),16)^r,e+=String.fromCharCode(i);e=document.createTextNode(e),c.parentNode.replaceChild(e,c)}}}catch(u){}}();/* ]]&gt; */&lt;/script&gt; \nFormat settings, CABAC : Yes \nFormat settings, ReFrames : 5 frames \nCodec ID : avc1 \nCodec ID/Info : Advanced Video Coding \nDuration : 21mn 0s \nBit rate : 952 Kbps \nMaximum bit rate : 4 138 Kbps \nWidth : 720 pixels \nHeight : 404 pixels \nDisplay aspect ratio : 16:9 \nFrame rate mode : Constant \nFrame rate : 29.970 fps \nColor space : YUV \nChroma subsampling : 4:2:0 \nBit depth : 8 bits \nScan type : Progressive \nBits/(Pixel*Frame) : 0.109 \nStream size : 143 MiB (87%) \nWriting library : x264 core 146 r2538 121396c \nEncoding settings : cabac=1 / ref=5 / deblock=1:0:0 / analyse=0x3:0x113 / me=umh / subme=8 / psy=1 / psy_rd=1.00:0.00 / mixed_ref=1 / me_range=16 / chroma_me=1 / trellis=1 / 8x8dct=1 / cqm=0 / deadzone=21,11 / fast_pskip=1 / chroma_qp_offset=-2 / threads=12 / lookahead_threads=2 / sliced_threads=0 / nr=0 / decimate=1 / interlaced=0 / bluray_compat=0 / constrained_intra=0 / bframes=3 / b_pyramid=2 / b_adapt=2 / b_bias=0 / direct=3 / weightb=1 / open_gop=0 / weightp=2 / keyint=250 / keyint_min=25 / scenecut=40 / intra_refresh=0 / rc_lookahead=50 / rc=crf / mbtree=1 / crf=22.0 / qcomp=0.60 / qpmin=0 / qpmax=69 / qpstep=4 / ip_ratio=1.40 / aq=1:1.00 \nEncoded date : UTC 2015-04-21 02:48:16 \nTagged date : UTC 2015-04-21 02:48:18 \nMatrix coefficients : BT.709 \n\nAudio \nID : 2 \nFormat : AAC \nFormat/Info : Advanced Audio Codec \nFormat profile : LC \nCodec ID : 40 \nDuration : 21mn 0s \nBit rate mode : Variable \nBit rate : 132 Kbps \nMaximum bit rate : 161 Kbps \nChannel(s) : 2 channels \nChannel positions : Front: L R \nSampling rate : 48.0 KHz \nCompression mode : Lossy \nStream size : 20.1 MiB (12%) \nLanguage : English \nEncoded date : UTC 2015-04-21 02:48:17 \nTagged date : UTC 2015-04-21 02:48:18","torrent":{"xt":"urn:btih:d82ec5fb47f2dd2c37138a676af5a806c3c3aad2","amp;dn":"Time+Traveling+With+Brian+Unger+S01E01+HDTV+x264-W4F","amp;tr":["udp%3A%2F%2Ftracker.openbittorrent.com%3A80","udp%3A%2F%2Fopen.demonii.com%3A1337","udp%3A%2F%2Ftracker.coppersurfer.tk%3A6969","udp%3A%2F%2Fexodus.desync.com%3A6969"],"infoHash":"d82ec5fb47f2dd2c37138a676af5a806c3c3aad2","infoHashBuffer":{"type":"Buffer","data":[216,46,197,251,71,242,221,44,55,19,138,103,106,245,168,6,195,195,170,210]},"announce":[],"urlList":[]}}